<svg xmlns="http://www.w3.org/2000/svg" xmlns:xlink="http://www.w3.org/1999/xlink" version="1.1" x="0px" y="0px" viewBox="0 0 903.76 339.1725" style="enable-background:new 0 0 903.76 271.338;" xml:space="preserve"><g><path d="M76.603,236.384c-1.505-1.61-2.292-3.71-2.217-5.913c0.291-8.584,1.422-15.427,2.977-20.893   c-5.095,0.793-10.934,1.334-17.487,1.415v49.46c0,5.523,4.478,10,10,10c5.523,0,10-4.477,10-10v-21.925   C78.642,238.092,77.522,237.367,76.603,236.384z"/><path d="M56.543,210.993c-7.66-0.094-14.336-0.822-20-1.839v51.298c0,5.523,4.481,10,10,10c5.524,0,10-4.477,10-10V210.993z"/><path d="M5.651,176.782c3.557,0.47,6.824-2.036,7.294-5.595c4.136-31.361,12.207-47.908,19.107-56.592l-17.176,84.414   c0,0,15.014,9,43.334,9c7.728,0,14.457-0.673,20.169-1.647c4.329-12.379,10.853-16.373,13.058-17.403   c0.752-0.511,1.574-0.864,2.437-1.052c-3.295-3.464-5.332-8.134-5.332-13.281c0-5.15,2.04-9.823,5.338-13.287l-9.503-46.704   c5.722,7.237,12.273,19.909,16.692,41.942c1.55-0.584,3.186-0.989,4.895-1.155c-0.067-9.386,0.33-17.923,1.197-25.583   c-11.851-32.09-28.724-36.796-32.637-37.461c-1.714-0.429-8.958-2.124-16.313-2.124c-7.354,0-14.599,1.695-16.313,2.124   c-5.157,0.876-32.826,8.756-41.84,77.11C-0.412,173.047,2.092,176.312,5.651,176.782z"/><circle cx="58.21" cy="64.261" r="21.5"/><path d="M434.359,130.794c-1.726,1.587-3.694,2.912-5.842,3.917c2.308,0.349,4.174,0.807,5.677,1.301   c0-0.085-0.006-0.166-0.006-0.251C434.188,134.112,434.25,132.455,434.359,130.794z"/><path d="M440.154,105.328c0.47-1.197,0.961-2.388,1.483-3.567h3.311c-1.286,2.793-2.421,5.666-3.411,8.59   c0.177,1.147,0.269,2.322,0.269,3.518c0,4.832-1.501,9.319-4.057,13.025c-0.356,2.951-0.56,5.912-0.56,8.867   c0,0.494,0.025,0.968,0.036,1.453c7.5,3.487,20.085,13.532,27.31,42.358c9.565,4.177,20.842,5.994,32.495,5.994   c3.83,0,7.619-0.199,11.321-0.61c-3.302-2.315-5.424-6.189-5.3-10.516c1.153-40.206,9.02-67.292,23.38-80.505   c6.453-5.939,12.651-7.64,16.381-8.086c-4.086-4.787-6.561-10.989-6.561-17.761c0-4.655,1.17-9.04,3.226-12.883   c-6.056-3.901-11.594-5.704-15.259-6.531c-5.956,8.644-15.919,14.325-27.187,14.325c-11.268,0-21.231-5.681-27.188-14.325   c-6.228,1.405-17.867,5.614-28.246,18.17c-5.888,7.123-10.443,15.776-13.662,25.918C433.48,95.17,437.895,99.703,440.154,105.328z"/><path d="M467.921,197.531c0.646,4.782-2.718,9.197-7.499,9.843c-0.392,0.053-0.788,0.079-1.179,0.079h-0.001   c-1.862,0-3.606-0.599-5.041-1.619l10.622,53.564c0,6.594,6.604,11.939,14.748,11.939c8.148,0,14.754-5.346,14.754-11.939v-70.871   c-10.841-0.259-20.619-2.083-28.943-5.367C466.358,187.539,467.216,192.314,467.921,197.531z"/><path d="M505.907,239.77l9.212-52.579c-0.016,0-0.031,0-0.047-0.001c-0.265-0.008-0.524-0.038-0.785-0.062   c-4.591,0.804-9.454,1.278-14.556,1.4v70.871c0,6.594,6.606,11.939,14.753,11.939c8.145,0,14.751-5.346,14.751-11.939l1.865-9.405   c-14.664-3.667-22.746-8.675-23.269-9.006L505.907,239.77z"/><circle cx="497.028" cy="29.999" r="30"/><circle cx="355.825" cy="28.073" r="22.5"/><path d="M321.277,163.634c0.497-0.809,0.85-1.712,1.034-2.674c-1.893-10.48-4.258-18.903-6.798-25.657L321.277,163.634z"/><path d="M324,108.969c1.236-9.914,2.964-17.197,4.778-22.523v30.762c5.967,11.726,11.32,28.33,14.423,51.862   c0.698,5.303-3.047,10.186-8.35,10.885c-0.422,0.056-0.852,0.084-1.275,0.084c-1.735,0-3.374-0.471-4.798-1.289v21.754l0.018,0.086   l-0.018,0.011v57.518c0,6.83,5.537,12.363,12.363,12.363c6.828,0,12.365-5.533,12.365-12.363V157.514h4.635v100.604   c0,6.83,5.537,12.363,12.363,12.363c6.828,0,12.365-5.533,12.365-12.363v-51.925c-1.324,0.801-2.869,1.259-4.503,1.26   c-0.391,0-0.786-0.027-1.176-0.079c-4.784-0.647-8.147-5.062-7.502-9.843c2.728-20.188,7.727-33.823,13.181-43.032V86.233   c3.555,10.399,6.8,28.369,6.611,59.243c4.658-5.075,9.124-7.609,12.315-8.868c0.981-0.407,2.173-0.81,3.62-1.173   c-0.018-0.983-0.038-1.963-0.064-2.928c-5.778-4.182-9.548-10.977-9.548-18.639c0-6.166,2.444-11.769,6.408-15.903   c-2.911-16.488-7.754-28.274-14.515-35.225c-4.104-4.219-8.032-5.692-10.529-6.191c-0.647-0.176-1.324-0.278-2.027-0.278h-38.635   c-0.708,0-1.391,0.103-2.042,0.282c-2.499,0.498-6.406,1.964-10.513,6.187c-6.246,6.422-10.857,16.966-13.819,31.533   C314.368,97.205,319.239,101.794,324,108.969z"/><circle cx="760.158" cy="28.073" r="22.5"/><path d="M721.192,106.24c0,8.105-4.092,15.27-10.316,19.546c-0.02,0.415-0.036,0.837-0.054,1.255h1.679   c0.293-0.027,0.589-0.043,0.888-0.043c0.247,0,0.491,0.015,0.736,0.033l0.174,0.01c0.359,0,0.712,0.024,1.062,0.064   c4.051,0.38,7.913,2.032,11.301,4.779c0.692-22.528,3.454-36.644,6.45-45.438V139.4c7.227,11.757,10.353,31.404,9.065,57.486   c-0.246,4.962-4.176,8.883-9.065,9.192v52.042c0,6.83,5.537,12.363,12.363,12.363c6.828,0,12.365-5.533,12.365-12.363V157.514   h4.635v100.604c0,6.83,5.537,12.363,12.363,12.363c6.828,0,12.365-5.533,12.365-12.363v-76.106c-1.373,0.692-2.882,1.108-4.462,1.2   c-0.224,0.013-0.45,0.02-0.673,0.02c-6.024,0.001-11.021-4.714-11.373-10.734c-2.517-43.019,3.04-71.385,16.508-84.341v-1.924   c0.161,0.472,0.321,0.965,0.481,1.468c5.57-5.135,11.109-6.56,14.569-6.887c-2.694-7.798-6.101-13.836-10.223-18.074   c-4.104-4.219-8.032-5.692-10.529-6.191c-0.647-0.176-1.324-0.278-2.027-0.278h-38.635c-0.708,0-1.391,0.103-2.042,0.282   c-2.499,0.498-6.406,1.964-10.513,6.187c-5.706,5.867-10.044,15.185-13.011,27.858C718.953,94.775,721.192,100.25,721.192,106.24z"/><path d="M109.356,155.404c7.4,0.58,13.637,5.339,16.339,11.923c-1.53-32.544,2.312-50.197,6.607-59.131v88.116   c4.175,5.954,8.386,16.322,8.99,34.16c0.075,2.202-0.712,4.302-2.217,5.912c-1.505,1.61-3.546,2.538-5.749,2.612l-0.282,0.005   c-0.251,0-0.497-0.014-0.742-0.036v19.26c0,6.83,5.537,12.363,12.364,12.363c6.828,0,12.365-5.533,12.365-12.363v-90.271h4.635   v90.271c0,6.83,5.537,12.363,12.363,12.363c6.828,0,12.365-5.533,12.365-12.363v-52.633c-3.68-1.239-6.387-4.618-6.59-8.707   c-1.13-22.886,1.136-40.822,6.59-52.817v-35.87c2.543,5.288,4.925,13.634,6.131,26.308c0.12-0.131,0.238-0.269,0.36-0.397   c3.908-4.104,8.681-6.529,13.804-7.011c0.279-0.033,0.633-0.057,0.993-0.057l0.114-0.007c-0.217-1.622-0.455-3.205-0.717-4.737   c-3.9-4.226-6.288-9.867-6.288-16.057c0-1.423,0.133-2.815,0.375-4.17c-2.245-4.818-4.946-8.724-8.108-11.695   c-5.611-5.272-11.092-6.179-13.907-6.245c-0.161-0.01-0.321-0.024-0.485-0.024h-38.635c-0.168,0-0.333,0.015-0.5,0.025   c-2.819,0.07-8.292,0.981-13.893,6.244C114.554,100.789,109.099,122.635,109.356,155.404z"/><circle cx="159.349" cy="55.906" r="22.5"/><path d="M283.544,210.993v49.46c0,5.523,4.479,10,10,10c5.523,0,10-4.477,10-10v-51.298   C297.88,210.172,291.204,210.899,283.544,210.993z"/><path d="M280.21,210.993c-7.66-0.094-14.336-0.822-20-1.839v51.298c0,5.523,4.481,10,10,10c5.524,0,10-4.477,10-10V210.993z"/><path d="M250.499,200.049v3.732c1.367,0.405,2.85,0.806,4.446,1.192C252.938,203.905,251.357,202.156,250.499,200.049z"/><path d="M235.839,127.041h3.662c0.293-0.027,0.589-0.043,0.888-0.043c0.247,0,0.491,0.015,0.736,0.033l0.174,0.01   c0.359,0,0.712,0.024,1.062,0.064c1.791,0.168,3.544,0.593,5.238,1.239c2.688-5.983,5.489-10.438,8.12-13.749l-3.323,16.33   c1.297,0.915,2.54,1.966,3.7,3.184c10.063,10.573,14.587,32.281,13.081,62.777c-0.245,4.961-4.174,8.881-9.062,9.191   c6.039,1.126,13.302,1.932,21.762,1.932c28.32,0,43.333-9,43.333-9l-17.167-84.374c6.884,8.707,14.972,25.269,19.097,56.552   c0.432,3.271,3.225,5.651,6.437,5.651c0.283,0,0.569-0.019,0.857-0.057c3.56-0.469,6.063-3.735,5.595-7.294   c-9.014-68.354-36.683-76.233-41.84-77.11c-1.714-0.429-8.958-2.124-16.313-2.124c-7.354,0-14.599,1.695-16.313,2.124   c-2.387,0.406-9.597,2.317-17.547,11.025c0.112,0.931,0.176,1.877,0.176,2.838C248.192,115.2,243.193,123.013,235.839,127.041z"/><circle cx="281.876" cy="64.261" r="21.5"/><path d="M201.683,149.696v38.252h45.616v-38.252c3.158,6.27,7.021,19.584,5.697,46.39c-0.177,3.585,2.586,6.636,6.172,6.813   c0.109,0.005,0.218,0.008,0.325,0.008c3.443,0,6.315-2.703,6.487-6.179c1.462-29.6-2.758-50.49-12.202-60.413   c-3.395-3.566-7.442-5.623-11.786-6.031c-0.228-0.026-0.459-0.043-0.694-0.043h-0.111c-0.267-0.012-0.53-0.043-0.799-0.043   c-0.246,0-0.487,0.016-0.726,0.043h-30.345c-0.239-0.026-0.48-0.043-0.726-0.043c-0.269,0-0.532,0.03-0.799,0.043h-0.112   c-0.235,0-0.466,0.017-0.693,0.043c-4.343,0.408-8.391,2.465-11.785,6.031c-9.444,9.922-13.664,30.813-12.202,60.413   c0.172,3.476,3.044,6.179,6.487,6.179c0.107,0,0.217-0.002,0.325-0.008c3.586-0.177,6.349-3.228,6.172-6.813   C194.661,169.28,198.525,155.966,201.683,149.696z"/><path d="M247.299,190.948h-45.616v69.168c0,5.729,4.646,10.375,10.378,10.375c5.727,0,10.373-4.646,10.373-10.375V210.7h4.113   v49.416c0,5.729,4.646,10.375,10.377,10.375c5.729,0,10.375-4.646,10.375-10.375V190.948z"/><circle cx="224.491" cy="106.24" r="20.5"/><path d="M415.989,231.402c-6.312-0.194-11.77-1.019-16.266-2.049v32.753c0,4.491,3.641,8.134,8.133,8.134   c4.492,0,8.133-3.643,8.133-8.134V231.402z"/><path d="M421.62,231.402v30.703c0,4.491,3.643,8.134,8.135,8.134c4.49,0,8.133-3.643,8.133-8.134v-32.753   C433.391,230.383,427.933,231.208,421.62,231.402z"/><circle cx="418.805" cy="113.869" r="20"/><path d="M434.079,139.145c-1.651-0.619-4.009-1.244-7.308-1.646c-2.283-0.37-5.112-0.699-7.965-0.699   c-2.853,0-5.681,0.329-7.964,0.699c-3.308,0.403-5.67,1.03-7.321,1.65c-7.397,2.595-24.734,13.471-30.858,58.784   c-0.425,3.147,1.781,6.043,4.928,6.468c3.159,0.423,6.044-1.782,6.469-4.928c2.475-18.315,6.791-29.919,11.095-37.26   c-3.918,18.115-8.767,43.772-8.767,59.788c0,0,12.068,6.949,32.419,6.949s32.419-6.949,32.419-6.949   c0-16.017-4.851-41.675-8.769-59.79c4.305,7.34,8.621,18.945,11.097,37.262c0.39,2.886,2.857,4.981,5.691,4.98   c0.256,0,0.516-0.017,0.777-0.052c3.146-0.425,5.353-3.321,4.928-6.468C458.822,152.597,441.47,141.733,434.079,139.145z"/><path d="M133.045,236.001c0.06,0,0.12-0.001,0.181-0.003c2.898-0.098,5.168-2.527,5.069-5.425   c-1.082-31.919-14.046-38.356-15.521-38.985c-0.007-0.003-0.015-0.004-0.022-0.007c-0.674-0.516-1.504-0.834-2.413-0.834h-1.919   c-3.042,2.003-6.675,3.178-10.581,3.178s-7.54-1.175-10.581-3.178H95.34c-0.917,0-1.754,0.325-2.431,0.85l-0.003-0.008   c-1.475,0.629-14.438,7.066-15.521,38.985c-0.099,2.897,2.171,5.327,5.069,5.425c0.061,0.002,0.121,0.003,0.181,0.003   c2.817,0,5.147-2.235,5.244-5.072c0.325-9.599,1.787-16.21,3.461-20.725v52.963c0,4.142,3.357,7.5,7.5,7.5s7.5-3.358,7.5-7.5   v-23.999h3v23.999c0,4.142,3.357,7.5,7.5,7.5s7.5-3.358,7.5-7.5v-53.046c1.666,4.509,3.133,11.144,3.461,20.808   C127.897,233.767,130.227,236.001,133.045,236.001z"/><circle cx="107.84" cy="174.626" r="15.299"/><path d="M515.186,183.792c0.088,0.003,0.175,0.004,0.263,0.004c0.229,0,0.453-0.017,0.678-0.034l7.437-42.449   c-1.169-4.525-0.745-9.476,1.604-13.936c1.016-1.929,2.32-3.603,3.816-5.027c-0.367,0.556-0.711,1.133-1.028,1.734   c-5.212,9.898-1.414,22.144,8.483,27.356c5.708,3.005,12.19,2.999,17.66,0.568c-5.834,4.379-13.887,5.305-20.771,1.681   c-3.282-1.728-5.847-4.271-7.62-7.238l-16.06,91.664c0,0,19.492,12.334,54,12.334c17.885,0,31.725-3.313,40.92-6.505v-69.034   c-0.46,1.648-1.294,3.183-2.465,4.5c-2.023,2.275-4.813,3.626-7.853,3.804c-0.224,0.013-0.45,0.02-0.673,0.02   c-6.024,0.001-11.021-4.714-11.373-10.734c-0.345-5.9-0.533-11.515-0.575-16.862c-3.043-0.52-5.938-1.756-8.432-3.629   c2.639,1.173,5.509,1.776,8.42,1.75c-0.034-28.214,4.25-48.503,12.793-60.566c-6.335-4.149-11.625-4.139-12.792-4.078   c-0.208,0.011-0.412,0.04-0.616,0.065c-0.051-0.001-0.101-0.008-0.153-0.008h-1.172c-4.455,3.395-10.01,5.417-16.031,5.417   s-11.576-2.022-16.031-5.417h-1.171c-0.052,0-0.102,0.007-0.153,0.008c-0.204-0.025-0.408-0.054-0.616-0.065   c-1.421-0.076-8.894-0.088-16.947,7.323c-13.659,12.568-21.157,38.845-22.283,78.101   C506.305,179.507,510.217,183.65,515.186,183.792z"/><path d="M561.549,253.426c-9.205-0.131-17.317-1.103-24.26-2.464l1.339,10.727c0,5.123,5.131,9.275,11.459,9.275   c6.329,0,11.462-4.152,11.462-9.275V253.426z"/><path d="M565.749,253.426v8.263c0,5.123,5.133,9.275,11.462,9.275c6.328,0,11.46-4.152,11.46-9.275l1.339-10.727   C583.067,252.323,574.954,253.295,565.749,253.426z"/><circle cx="563.649" cy="68.088" r="24"/><path d="M585.6,172.299c0.249,4.252,3.774,7.533,7.979,7.533c0.157,0,0.316-0.004,0.475-0.014c4.411-0.258,7.777-4.043,7.52-8.454   c-2.056-35.14,1.926-53.871,6.396-63.168v150.029c0,6.83,5.537,12.363,12.364,12.363c6.828,0,12.365-5.533,12.365-12.363v-90.271   h4.635v90.271c0,6.83,5.537,12.363,12.363,12.363c6.828,0,12.365-5.533,12.365-12.363v-52.139c-4.977-0.217-9.008-4.174-9.256-9.2   c-1.299-26.312,1.894-46.074,9.256-57.795v-30.893c2.384,4.959,4.629,12.603,5.893,23.987c3.476-2.929,7.48-4.687,11.734-5.087   c0.279-0.033,0.633-0.057,0.993-0.057l0.175-0.01c0.245-0.018,0.489-0.033,0.736-0.033c0.3,0,0.595,0.016,0.887,0.043h0.984   c-0.086-0.641-0.172-1.283-0.265-1.91c-5.711-4.331-9.408-11.186-9.408-18.89c0-2.667,0.449-5.23,1.266-7.625   c-1.854-3.264-3.963-6.015-6.332-8.241c-5.611-5.272-11.092-6.179-13.907-6.245c-0.161-0.01-0.321-0.024-0.485-0.024h-38.635   c-0.168,0-0.333,0.015-0.5,0.025c-2.819,0.07-8.292,0.981-13.893,6.244C588.413,102.487,583.128,130.051,585.6,172.299z"/><circle cx="635.015" cy="55.906" r="22.5"/><path d="M803.688,84.13c-2.819,0.07-8.292,0.981-13.893,6.244c-12.893,12.114-18.177,39.677-15.705,81.926   c0.249,4.252,3.774,7.533,7.979,7.533c0.157,0,0.316-0.004,0.475-0.014c4.411-0.258,7.777-4.043,7.52-8.454   c-2.056-35.14,1.926-53.871,6.396-63.168v150.029c0,6.83,5.537,12.363,12.364,12.363c6.828,0,12.365-5.533,12.365-12.363v-90.271   h4.635v90.271c0,6.83,5.537,12.363,12.363,12.363c6.828,0,12.365-5.533,12.365-12.363v-19.595c-0.775,0.239-1.599,0.37-2.455,0.37   l-0.277-0.004c-2.208-0.075-4.249-1.003-5.754-2.613c-1.505-1.61-2.292-3.71-2.217-5.913c0.688-20.293,6.043-30.919,10.703-36.374   v-85.899c4.14,8.61,7.856,25.319,6.752,55.645c3.472-5.134,9.347-8.516,15.998-8.516c0.066,0,0.13,0.009,0.196,0.01   c0.249-32.732-5.206-54.555-16.283-64.963c-5.611-5.272-11.092-6.179-13.907-6.245c-0.161-0.01-0.321-0.024-0.485-0.024h-38.635   C804.019,84.105,803.854,84.119,803.688,84.13z"/><circle cx="823.505" cy="55.906" r="22.5"/><path d="M674.683,190.948v69.168c0,5.729,4.646,10.375,10.378,10.375c5.727,0,10.373-4.646,10.373-10.375V210.7h4.113v49.416   c0,5.729,4.646,10.375,10.377,10.375c5.729,0,10.375-4.646,10.375-10.375v-69.168H674.683z"/><path d="M732.493,202.907c3.443,0,6.315-2.703,6.487-6.179c1.462-29.6-2.758-50.49-12.202-60.413   c-3.395-3.566-7.442-5.623-11.786-6.031c-0.228-0.026-0.459-0.043-0.694-0.043h-0.111c-0.267-0.012-0.53-0.043-0.799-0.043   c-0.246,0-0.487,0.016-0.726,0.043h-30.345c-0.239-0.026-0.48-0.043-0.726-0.043c-0.269,0-0.532,0.03-0.799,0.043h-0.112   c-0.235,0-0.466,0.017-0.693,0.043c-4.343,0.408-8.391,2.465-11.785,6.031c-9.444,9.922-13.664,30.813-12.202,60.413   c0.172,3.476,3.044,6.179,6.487,6.179c0.107,0,0.217-0.002,0.325-0.008c3.586-0.177,6.349-3.228,6.172-6.813   c-1.324-26.807,2.539-40.12,5.697-46.391v38.252h45.616v-38.252c3.158,6.27,7.021,19.584,5.697,46.39   c-0.177,3.585,2.586,6.636,6.172,6.813C732.278,202.905,732.386,202.907,732.493,202.907z"/><circle cx="697.491" cy="106.24" r="20.5"/><path d="M883.883,190.747c-3.042,2.003-6.675,3.178-10.581,3.178s-7.54-1.175-10.581-3.178h-1.919c-0.917,0-1.754,0.325-2.431,0.85   l-0.003-0.008c-1.475,0.629-14.438,7.066-15.521,38.985c-0.099,2.897,2.171,5.327,5.069,5.425c0.061,0.002,0.121,0.003,0.181,0.003   c2.817,0,5.147-2.235,5.244-5.072c0.325-9.599,1.787-16.21,3.461-20.725v52.963c0,4.142,3.357,7.5,7.5,7.5s7.5-3.358,7.5-7.5   v-23.999h3v23.999c0,4.142,3.357,7.5,7.5,7.5s7.5-3.358,7.5-7.5v-53.046c1.666,4.509,3.133,11.144,3.461,20.808   c0.097,2.837,2.427,5.072,5.244,5.072c0.06,0,0.12-0.001,0.181-0.003c2.898-0.098,5.168-2.527,5.069-5.425   c-1.082-31.919-14.046-38.356-15.521-38.985c-0.007-0.003-0.015-0.004-0.022-0.007c-0.674-0.516-1.504-0.834-2.413-0.834H883.883z"/><circle cx="873.302" cy="174.626" r="15.299"/></g><text x="0" y="286.338" fill="#000000" font-size="5px" font-weight="bold" font-family="'Helvetica Neue', Helvetica, Arial-Unicode, Arial, Sans-serif">Created by Gan Khoon Lay</text><text x="0" y="291.338" fill="#000000" font-size="5px" font-weight="bold" font-family="'Helvetica Neue', Helvetica, Arial-Unicode, Arial, Sans-serif">from the Noun Project</text></svg>