<svg xmlns="http://www.w3.org/2000/svg" xmlns:xlink="http://www.w3.org/1999/xlink" version="1.1" x="0px" y="0px" viewBox="0 0 69 86.25" style="enable-background:new 0 0 69 69;" xml:space="preserve"><g><path d="M17.70671,4.15676c0-0.91393,0.7459-1.65676,1.6624-1.65676h30.25871c0.91701,0,1.66291,0.74283,1.66291,1.65676   c0,0.90702-0.73521,1.6446-1.64261,1.65574H19.34881C18.44185,5.80136,17.70671,5.06378,17.70671,4.15676z M47.58222,64.22324   c-0.21875,0.49622-0.43756,0.99251-0.66342,1.45607C46.67188,66.18545,46.1729,66.5,45.61655,66.5H23.38243   c-0.55584,0-1.0543-0.31455-1.30072-0.81967c-0.23386-0.47996-0.46074-0.99264-0.68692-1.50749   c-0.02997-0.06935-0.05763-0.12897-0.08818-0.2005h26.38576C47.6542,64.06199,47.61949,64.13704,47.58222,64.22324z    M48.34164,62.39857H20.65836c-3.99814-10.11399-6.59663-25.17738-6.59663-34.35246c0-7.80546,1.96068-15.12103,5.5285-20.65779   h1.4628l-1.84817,11.013c-1.32723,0.30987-2.3214,1.49648-2.3214,2.91733c0,1.65471,1.34631,3.00102,3.00154,3.00102   c1.65522,0,3.00154-1.34631,3.00154-3.00102c0-1.3385-0.88576-2.46139-2.0974-2.84766l1.85982-11.08267h6.82313l-0.92591,11.0292   c-1.3004,0.32909-2.26928,1.49942-2.26928,2.90113c0,1.65471,1.34631,3.00102,3.00154,3.00102   c1.65471,0,3.00102-1.34631,3.00102-3.00102c0-1.36059-0.91477-2.49898-2.15708-2.86635l0.92834-11.06397h6.89805l0.92834,11.06397   c-1.24232,0.36738-2.15708,1.50576-2.15708,2.86635c0,1.65471,1.34631,3.00102,3.00102,3.00102   c1.65574,0,3.00205-1.34631,3.00205-3.00102c0-1.40196-0.96926-2.57255-2.2703-2.90138l-0.9254-11.02895h6.82364l1.85982,11.08254   c-1.21151,0.38614-2.0974,1.50916-2.0974,2.84778c0,1.65471,1.34631,3.00102,3.00103,3.00102   c1.65574,0,3.00205-1.34631,3.00205-3.00102c0-1.42111-0.99449-2.60797-2.32249-2.91758l-1.8481-11.01274h1.4628   c3.56884,5.53676,5.52952,12.85233,5.52952,20.65779C54.93827,37.22054,52.33965,52.28458,48.34164,62.39857z M19.88499,19.89037   c0.7874,0,1.42776,0.64037,1.42776,1.42828c0,0.78689-0.64037,1.42725-1.42776,1.42725c-0.7874,0-1.42777-0.64037-1.42777-1.42725   C18.45722,20.53074,19.09759,19.89037,19.88499,19.89037z M30.70569,21.31865c0,0.78689-0.64037,1.42725-1.42725,1.42725   c-0.7874,0-1.42777-0.64037-1.42777-1.42725c0-0.78791,0.64037-1.42828,1.42777-1.42828   C30.06532,19.89037,30.70569,20.53074,30.70569,21.31865z M39.72105,19.89037c0.78791,0,1.42828,0.64037,1.42828,1.42828   c0,0.78689-0.64037,1.42725-1.42828,1.42725c-0.78688,0-1.42725-0.64037-1.42725-1.42725   C38.2938,20.53074,38.93417,19.89037,39.72105,19.89037z M49.1145,19.89037c0.78791,0,1.42828,0.64037,1.42828,1.42828   c0,0.78689-0.64037,1.42725-1.42828,1.42725c-0.78688,0-1.42725-0.64037-1.42725-1.42725   C47.68724,20.53074,48.32761,19.89037,49.1145,19.89037z"/></g></svg>