<svg xmlns="http://www.w3.org/2000/svg" xmlns:xlink="http://www.w3.org/1999/xlink" version="1.1" x="0px" y="0px" viewBox="0 0 100 125" enable-background="new 0 0 100 100" xml:space="preserve"><path fill-rule="evenodd" clip-rule="evenodd" d="M73.908,7.45h-47.85l0.4,3.3h47.1L73.908,7.45z M76.258,5.4  c0.233,0.267,0.333,0.583,0.3,0.95l-4.75,40.55c-0.3,1.9-0.85,3.583-1.65,5.05l-0.05,0.1l-0.1,0.1l-0.15,0.25  c0,0.167-0.066,0.316-0.2,0.45c-0.067,0.067-0.133,0.117-0.2,0.15c-1.6,2.267-3.95,4.017-7.05,5.25l0.9,3.75  c0.233,0.167,0.3,0.417,0.2,0.75v0.1l7.55,30.6c0.1,0.367,0.017,0.717-0.25,1.05c-0.267,0.333-0.583,0.5-0.95,0.5h-39.7  c-0.4,0-0.733-0.167-1-0.5c-0.267-0.333-0.35-0.683-0.25-1.05l8.65-35.2c-3-1.2-5.3-2.867-6.9-5l-1.2-1.9l-0.05-0.1  c-0.667-1.333-1.1-2.767-1.3-4.3l-4.65-40.6c-0.066-0.367,0.017-0.683,0.25-0.95c0.267-0.267,0.567-0.4,0.9-0.4h50.7  C75.675,5,75.991,5.133,76.258,5.4z M50.058,16.1c-0.6,0.3-1.283,2.367-2.05,6.2c-1.267,6.066-2.517,15.733-3.75,29  c0,0.433-0.25,0.65-0.75,0.65c-0.467-0.033-0.7-0.25-0.7-0.65c-1.133-13.333-2.283-22.983-3.45-28.95  c-0.767-3.867-1.45-5.933-2.05-6.2c-0.633,0.3-1.333,2.333-2.1,6.1c-1.167,5.833-2.367,15.117-3.6,27.85v0.05l1.05,1.65  c1.467,1.967,3.717,3.467,6.75,4.5l0.25,0.1h20.6l0.3-0.1c3.367-1.133,5.75-2.85,7.15-5.15l0.05-0.05l0.25-0.35  c0.1-0.167,0.183-0.316,0.25-0.45c-1.133-12.833-2.25-22.15-3.35-27.95c-0.767-3.867-1.483-5.95-2.15-6.25  c-0.567,0.3-1.25,2.35-2.05,6.15c-1.233,6-2.467,15.583-3.7,28.75c0,0.2-0.083,0.367-0.25,0.5c-0.167,0.133-0.333,0.184-0.5,0.15  c-0.467,0-0.7-0.217-0.7-0.65c-1.133-13.233-2.283-22.816-3.45-28.75C51.375,18.417,50.691,16.367,50.058,16.1z M62.808,14.6  c1.133,0.033,2.1,1.583,2.9,4.65c1.267,4.9,2.5,14.017,3.7,27.35l3.95-34.35h-46.75l3.9,34c1.333-13.233,2.65-22.267,3.95-27.1  c0.833-3,1.8-4.5,2.9-4.5c0.967,0,1.8,1.2,2.5,3.6c1.267,4.267,2.5,12.65,3.7,25.15c1.3-12.5,2.617-20.9,3.95-25.2  c0.7-2.367,1.566-3.567,2.6-3.6c1,0.033,1.85,1.233,2.55,3.6c1.267,4.267,2.483,12.567,3.65,24.9  c1.333-12.367,2.65-20.683,3.95-24.95C61.025,15.784,61.875,14.6,62.808,14.6z M37.908,66.95l-3.15,12.9l0.15-0.15  c1.933-1.533,3.8-2.3,5.6-2.3c1.633,0,3.6,0.8,5.9,2.4c2.066,1.433,3.483,2.15,4.25,2.15h0.25c1.367-0.067,2.917-0.767,4.65-2.1  l0.6-0.4c1.8-1.267,3.217-1.9,4.25-1.9c1.867,0,3.467,0.783,4.8,2.35L62.058,67c-1.133,2.167-2.55,3.25-4.25,3.25  c-0.8,0-1.883-0.667-3.25-2l-0.5-0.45c-1.3-1.333-2.433-2-3.4-2c-0.267,0-0.75,0.267-1.45,0.8c-0.333,0.2-0.833,0.617-1.5,1.25  c-1.733,1.7-3.267,2.55-4.6,2.55c-1.367,0-2.8-0.8-4.3-2.4L37.908,66.95z M39.858,66.95c1.167,1.3,2.25,1.95,3.25,1.95  c0.934,0,2.117-0.684,3.55-2.05c0.767-0.7,1.316-1.183,1.65-1.45c1-0.733,1.783-1.1,2.35-1.1c1.367,0,2.85,0.833,4.45,2.5l0.4,0.35  c1.1,1.066,1.867,1.6,2.3,1.6c1.233,0,2.3-1,3.2-3l0.4-1.25l-1.4-5.6h-20.1l-1.5,6.2c0.2,0.367,0.433,0.7,0.7,1L39.858,66.95z   M41.558,74.7c0.267,0.267,0.567,0.4,0.9,0.4c0.333,0,0.617-0.133,0.85-0.4c0.3-0.2,0.45-0.483,0.45-0.85  c0-0.333-0.133-0.633-0.4-0.9c-0.2-0.167-0.417-0.267-0.65-0.3c-0.5,0-0.717-0.267-0.65-0.8c0-0.2,0.083-0.367,0.25-0.5  s0.35-0.183,0.55-0.15c0.633,0,1.15,0.233,1.55,0.7c0.533,0.566,0.8,1.216,0.8,1.95s-0.267,1.383-0.8,1.95  c-0.5,0.5-1.133,0.75-1.9,0.75c-0.8,0-1.45-0.267-1.95-0.8c-0.5-0.5-0.75-1.133-0.75-1.9c0-0.5,0.1-0.95,0.3-1.35  c0.1-0.167,0.25-0.283,0.45-0.35c0.233-0.067,0.433-0.05,0.6,0.05c0.133,0.1,0.233,0.25,0.3,0.45c0.067,0.233,0.05,0.433-0.05,0.6  c-0.1,0.2-0.15,0.4-0.15,0.6C41.258,74.217,41.358,74.5,41.558,74.7z M40.508,78.85c-1.434,0-2.983,0.667-4.65,2l-1.75,1.6  l-2.45,10.1h36.65l-1.75-7.1c-0.633-1.433-1.183-2.567-1.65-3.4c-1.267-2.033-2.767-3.05-4.5-3.05c-0.767,0-1.9,0.567-3.4,1.7  l-0.6,0.4c-2,1.434-3.817,2.2-5.45,2.3l-0.3,0.05c-1.067,0-2.767-0.8-5.1-2.4C43.525,79.583,41.841,78.85,40.508,78.85z   M54.658,72.5c0.1-0.167,0.25-0.283,0.45-0.35c0.2-0.067,0.383-0.05,0.55,0.05c0.167,0.1,0.283,0.25,0.35,0.45  c0.066,0.233,0.05,0.433-0.05,0.6c-0.1,0.2-0.15,0.4-0.15,0.6c0,0.367,0.1,0.65,0.3,0.85c0.233,0.233,0.467,0.35,0.7,0.35h0.25  c0.333,0,0.6-0.117,0.8-0.35c0.3-0.2,0.45-0.483,0.45-0.85c0-0.333-0.133-0.633-0.4-0.9c-0.2-0.167-0.417-0.267-0.65-0.3  c-0.5,0-0.717-0.267-0.65-0.8c0-0.5,0.267-0.717,0.8-0.65c0.633,0,1.133,0.233,1.5,0.7c0.566,0.566,0.85,1.216,0.85,1.95  s-0.284,1.383-0.85,1.95c-0.467,0.5-1.083,0.75-1.85,0.75h-0.45c-0.533-0.033-1.033-0.3-1.5-0.8c-0.5-0.5-0.75-1.133-0.75-1.9  C54.358,73.35,54.458,72.9,54.658,72.5z"/></svg>