<svg xmlns="http://www.w3.org/2000/svg" xmlns:xlink="http://www.w3.org/1999/xlink" version="1.1" x="0px" y="0px" viewBox="0 0 100 125" style="enable-background:new 0 0 100 100;" xml:space="preserve"><style type="text/css">
	.st0{fill:#010101;}
</style><path class="st0" d="M33.9,40.9c-1.4,0.1-3.3-0.2-5.2-1.8c-0.8-0.6-1.2-1.7-1-2.7c0.1-0.7,0.2-1.2,0.3-1.7c0.1-0.8,0.6-1.4,1.2-1.8  l0,0c0.6-0.4,1.2-0.5,1.9-0.4l2.1,0.3c0.9,0.1,1.7,0.6,2.1,1.4l0.9,1.7c0.3,0.5,0.4,1.1,0.3,1.7l-0.1,0.9  C36.2,39.7,35.2,40.8,33.9,40.9z"/><path class="st0" d="M38.8,69.7L38.8,69.7c-0.2-0.1-0.4-0.3-0.5-0.5L36,64.7c-0.1-0.2-0.1-0.3-0.1-0.5l0.3-9.5c0-0.1,0-0.2,0-0.3  l-2-9.5c-0.1-0.3,0-0.7,0.2-0.9l1.7-2c0-0.1,0.1-0.1,0.1-0.1l2.4-1.9c0.3-0.2,0.4-0.6,0.4-0.9l-0.4-4.5c0,0,0-0.1,0-0.1l0.3-7.4  c0-0.1,0-0.1,0-0.2l-2.1-12.9c0-0.3,0-0.6,0.2-0.8l2.7-3.7l0.2,2.6c0,0.1,0,0.3,0,0.4l-0.7,2.3c-0.1,0.2-0.1,0.4,0,0.6l2.1,6.9  c0,0,0,0.1,0,0.1l2.3,10.6c0.1,0.3,0.3,0.6,0.5,0.7l2.9,1.6c0.1,0,0.1,0.1,0.2,0.2l3.5,3.3c0.1,0.1,0.1,0.1,0.2,0.2l5.7,3  c0.4,0.2,0.9,0.2,1.2-0.2l9.3-8.5c0.1-0.1,0.3-0.2,0.5-0.3l3-0.7c0.5-0.1,1.1,0.2,1.2,0.7l0.8,2.5c0,0.1,0.1,0.3,0,0.4l-0.9,13.4  c0,0,0,0,0,0.1l-0.1,6.7c0,1.1-1.5,1.5-2,0.5l-2.7-5.1c-0.2-0.3-0.2-0.7,0-1.1l1-1.6c0.1-0.2,0.2-0.5,0.1-0.7l-0.7-4.2  c-0.2-1-1.4-1.2-2-0.4l-5.6,8.5c-0.1,0.1-0.1,0.3-0.2,0.4l-3.1,16.8c0,0.1,0,0.1,0,0.2l-5.6,15.1c0,0.1,0,0.1-0.1,0.2l-1.1,6.9  c-0.1,0.5-0.5,0.9-1.1,0.9h-1.4c-0.5,0-1-0.4-1.1-0.9l-0.4-3c0-0.1,0-0.1,0-0.2v-2.5c0-0.2,0.1-0.5,0.2-0.7l1.9-2.4  c0.1-0.2,0.2-0.3,0.2-0.5l1.7-12c0-0.2,0.1-0.3,0.2-0.5l1.3-1.9c0.2-0.2,0.2-0.5,0.2-0.8l-2.1-9.5c0-0.1,0-0.2,0-0.3l0.3-5  c0-0.3-0.1-0.5-0.2-0.7l-2.2-2.9c-0.1-0.2-0.3-0.3-0.5-0.4l-6.5-2.1l-0.7,0.8l-0.1,7.5c0,0,0,0,0,0.1l-0.7,9.4c0,0.1,0,0.3,0.1,0.4  l1.6,4.4C40.7,69.3,39.7,70.2,38.8,69.7z"/></svg>